<?xml version="1.0" encoding="utf-8"?>
<!-- Generator: Adobe Illustrator 26.3.0, SVG Export Plug-In . SVG Version: 6.00 Build 0)  -->
<svg version="1.1" id="Capa_1" xmlns="http://www.w3.org/2000/svg" xmlns:xlink="http://www.w3.org/1999/xlink" x="0px" y="0px"
	 viewBox="0 0 200 240" style="enable-background:new 0 0 200 240;" xml:space="preserve">
<style type="text/css">
	.st0{fill:#FFFFFF;}
	.st1{opacity:0.3;}
	.st2{opacity:0.3;fill:#00C650;enable-background:new    ;}
	.st3{fill:#00C650;}
	.st4{opacity:0.3;fill:#FF3E4C;enable-background:new    ;}
	.st5{fill:#FF3E4C;}
	.st6{opacity:0.3;fill:#0072FF;enable-background:new    ;}
	.st7{fill:#0072FF;}
	.st8{opacity:0.3;fill:#A140FF;enable-background:new    ;}
	.st9{fill:#A140FF;}
	.st10{opacity:0.3;fill:#005FAD;enable-background:new    ;}
	.st11{fill:#005FAD;}
	.st12{opacity:0.3;fill:#FF9908;enable-background:new    ;}
	.st13{fill:#FF9908;}
	.st14{opacity:0.3;fill:#3CBA32;enable-background:new    ;}
	.st15{fill:#3CBA32;}
</style>
<rect x="-200" y="-200" class="st0" width="3600" height="2700"/>
<g class="st1">
	<path class="st2" d="M139.7,49.2c-5.5,0-10.7-2.2-14.6-6c-3.9-3.9-6-9.1-6-14.6V0H26.9c-7.1,0-14,2.8-19,7.9c-5,5-7.9,11.9-7.9,19
		v162.2c0,7.1,2.9,14,7.9,19c5,5,11.9,7.9,19,7.9h110.6c3.5,0,7-0.7,10.3-2c3.3-1.4,6.2-3.3,8.7-5.8c2.5-2.5,4.5-5.5,5.8-8.7
		c1.4-3.3,2-6.8,2-10.3V49.2L139.7,49.2z"/>
</g>
<path class="st3" d="M164.4,49.2h-24.8c-5.5,0-10.7-2.2-14.6-6c-3.9-3.9-6-9.1-6-14.6V0L164.4,49.2z"/>
<path class="st3" d="M183.9,170.6h-125c-8.9,0-16.1,7.2-16.1,16.1V224c0,8.9,7.2,16.1,16.1,16.1h125c8.9,0,16.1-7.2,16.1-16.1v-37.3
	C200,177.8,192.8,170.6,183.9,170.6z"/>
<path class="st0" d="M80.5,213.1v7.2H73v-7.2H80.5z"/>
<path class="st0" d="M107.4,193.1c2.5,2,4.2,4.9,4.9,8.1h-7.7c-0.5-1.3-1.4-2.5-2.6-3.3c-1.2-0.8-2.7-1.2-4.2-1.2
	c-1,0-1.9,0.2-2.8,0.6s-1.7,1-2.3,1.8c-1.4,1.8-2.1,4-1.9,6.2c-0.1,2.2,0.6,4.4,1.9,6.2c0.6,0.8,1.4,1.3,2.3,1.7
	c0.9,0.4,1.9,0.6,2.8,0.6c1.5,0,2.9-0.4,4.2-1.2c1.2-0.8,2.1-1.9,2.6-3.2h7.7c-0.6,3.2-2.3,6.1-4.8,8.1c-2.7,2.1-6.1,3.1-9.5,3
	c-2.7,0.1-5.3-0.6-7.7-1.9c-2.2-1.3-4-3.1-5.1-5.4c-1.2-2.5-1.9-5.2-1.8-7.9c-0.1-2.7,0.6-5.5,1.8-7.9c1.1-2.3,2.9-4.1,5.1-5.4
	c2.3-1.3,5-2,7.7-1.9C101.4,190,104.7,191.1,107.4,193.1z"/>
<path class="st0" d="M136.6,216.3c-0.9,1.4-2.1,2.5-3.6,3.2c-1.8,0.8-3.7,1.2-5.7,1.2c-3,0.1-5.9-0.7-8.3-2.5
	c-1.1-0.8-1.9-1.8-2.6-3c-0.6-1.2-1-2.5-1-3.8h7.7c0.1,1,0.5,2,1.2,2.7c0.7,0.7,1.7,1,2.6,1c0.8,0,1.6-0.2,2.2-0.8
	c0.3-0.3,0.5-0.6,0.6-0.9s0.2-0.7,0.2-1.1c0-0.4-0.1-0.7-0.2-1c-0.1-0.3-0.3-0.6-0.6-0.9c-0.5-0.5-1.2-1-1.8-1.2
	c-0.7-0.3-1.8-0.7-3-1.2c-1.6-0.5-3.1-1.1-4.6-1.9c-1.2-0.6-2.3-1.6-3.1-2.7c-0.9-1.4-1.4-3-1.3-4.7c0-1.6,0.4-3.3,1.4-4.6
	c0.9-1.3,2.2-2.4,3.8-3c1.7-0.7,3.6-1,5.5-1c2.8-0.1,5.6,0.7,7.9,2.4c1,0.8,1.8,1.8,2.4,2.9c0.6,1.1,0.9,2.4,1,3.6h-7.8
	c-0.1-0.9-0.5-1.7-1.1-2.4c-0.3-0.3-0.7-0.5-1.1-0.7c-0.4-0.1-0.8-0.2-1.3-0.2c-0.7,0-1.5,0.2-2.1,0.7c-0.3,0.3-0.5,0.6-0.6,0.9
	c-0.1,0.3-0.2,0.7-0.2,1.1c0,0.3,0,0.7,0.2,1c0.1,0.3,0.3,0.6,0.5,0.8c0.5,0.5,1.1,0.9,1.8,1.2c0.7,0.3,1.7,0.7,3,1.2
	c1.6,0.5,3.2,1.2,4.7,1.9c1.2,0.7,2.3,1.6,3.1,2.8c0.9,1.4,1.4,3.1,1.3,4.7C137.8,213.5,137.4,215,136.6,216.3z"/>
<path class="st0" d="M147.4,190.4l7.3,22.5l7.3-22.5h7.8l-10.4,29.9h-9.4l-10.4-29.9H147.4z"/>
<path class="st3" d="M118.9,150.8H45.5c-6.3,0-11.5-6.3-11.5-14.1V83.5c0-7.8,5.2-14.1,11.5-14.1h73.4c6.3,0,11.5,6.3,11.5,14.1
	v53.2C130.4,144.5,125.2,150.8,118.9,150.8z M45.5,76.6c-3.1,0-5.6,3.1-5.6,6.9v53.2c0,3.8,2.5,6.9,5.6,6.9h73.4
	c3.1,0,5.6-3.1,5.6-6.9V83.5c0-3.8-2.5-6.9-5.6-6.9H45.5z"/>
<path class="st3" d="M127.5,118.8H37v7.2h90.5V118.8z"/>
<path class="st3" d="M127.5,94H37v7.2h90.5V94z"/>
<path class="st3" d="M104.3,73h-7.2v74.2h7.2V73z"/>
<path class="st3" d="M67.4,73h-7.2v74.2h7.2V73z"/>
</svg>
