<svg xmlns="http://www.w3.org/2000/svg" xmlns:xlink="http://www.w3.org/1999/xlink" version="1.1" width="256" height="256" viewBox="0 0 256 256" xml:space="preserve">

<defs>
</defs>
<g style="stroke: none; stroke-width: 0; stroke-dasharray: none; stroke-linecap: butt; stroke-linejoin: miter; stroke-miterlimit: 10; fill: none; fill-rule: nonzero; opacity: 1;" transform="translate(1.4065934065934016 1.4065934065934016) scale(2.81 2.81)" >
	<path d="M 86.782 70.74 H 70.817 h -1.99 c 0 4.958 4.019 8.977 8.977 8.977 c 0.337 0 0.668 -0.022 0.995 -0.058 c 0.327 0.036 0.658 0.058 0.995 0.058 c 4.958 0 8.977 -4.019 8.977 -8.977 H 86.782 z" style="stroke: none; stroke-width: 1; stroke-dasharray: none; stroke-linecap: butt; stroke-linejoin: miter; stroke-miterlimit: 10; fill: rgb(127,198,220); fill-rule: nonzero; opacity: 1;" transform=" matrix(1 0 0 1 0 0) " stroke-linecap="round" />
	<path d="M 79.795 79.717 H 21.196 c -4.958 0 -8.977 -4.019 -8.977 -8.977 V 8.977 l 24.97 -4.489 L 61.84 0 c 4.958 0 8.977 4.019 8.977 8.977 V 70.74 C 70.818 75.698 74.837 79.717 79.795 79.717" style="stroke: none; stroke-width: 1; stroke-dasharray: none; stroke-linecap: butt; stroke-linejoin: miter; stroke-miterlimit: 10; fill: rgb(213,233,240); fill-rule: nonzero; opacity: 1;" transform=" matrix(1 0 0 1 0 0) " stroke-linecap="round" />
	<path d="M 58.389 36.37 H 22.773 c -0.806 0 -1.459 -0.654 -1.459 -1.459 c 0 -0.806 0.653 -1.459 1.459 -1.459 h 35.616 c 0.806 0 1.459 0.654 1.459 1.459 C 59.848 35.717 59.195 36.37 58.389 36.37 z" style="stroke: none; stroke-width: 1; stroke-dasharray: none; stroke-linecap: butt; stroke-linejoin: miter; stroke-miterlimit: 10; fill: rgb(127,198,220); fill-rule: nonzero; opacity: 1;" transform=" matrix(1 0 0 1 0 0) " stroke-linecap="round" />
	<path d="M 58.389 48.318 H 22.773 c -0.806 0 -1.459 -0.654 -1.459 -1.459 s 0.653 -1.459 1.459 -1.459 h 35.616 c 0.806 0 1.459 0.654 1.459 1.459 S 59.195 48.318 58.389 48.318 z" style="stroke: none; stroke-width: 1; stroke-dasharray: none; stroke-linecap: butt; stroke-linejoin: miter; stroke-miterlimit: 10; fill: rgb(127,198,220); fill-rule: nonzero; opacity: 1;" transform=" matrix(1 0 0 1 0 0) " stroke-linecap="round" />
	<path d="M 61.84 0 c -4.958 0 -8.977 4.019 -8.977 8.977 H 1.228 C 1.228 4.019 5.247 0 10.205 0 H 61.84" style="stroke: none; stroke-width: 1; stroke-dasharray: none; stroke-linecap: butt; stroke-linejoin: miter; stroke-miterlimit: 10; fill: rgb(127,198,220); fill-rule: nonzero; opacity: 1;" transform=" matrix(1 0 0 1 0 0) " stroke-linecap="round" />
	<path d="M 40.083 71.672 h -6.14 v 8.052 v 9.62 c 0 0.568 0.673 0.866 1.094 0.486 l 4.607 -4.162 c 0.249 -0.225 0.629 -0.225 0.878 0 l 4.607 4.162 c 0.421 0.38 1.094 0.082 1.094 -0.486 v -9.62 v -8.052 H 40.083 z" style="stroke: none; stroke-width: 1; stroke-dasharray: none; stroke-linecap: butt; stroke-linejoin: miter; stroke-miterlimit: 10; fill: rgb(254,104,64); fill-rule: nonzero; opacity: 1;" transform=" matrix(1 0 0 1 0 0) " stroke-linecap="round" />
	<path d="M 30.013 64.418 L 30.013 64.418 c -1.802 -2.462 0.178 -5.892 3.211 -5.562 h 0 c 1.521 0.165 2.973 -0.673 3.591 -2.073 l 0 0 c 1.231 -2.792 5.192 -2.792 6.423 0 l 0 0 c 0.617 1.4 2.07 2.238 3.591 2.073 h 0 c 3.033 -0.33 5.013 3.1 3.211 5.562 l 0 0 c -0.904 1.234 -0.904 2.912 0 4.146 l 0 0 c 1.802 2.462 -0.178 5.892 -3.211 5.562 h 0 c -1.521 -0.165 -2.973 0.673 -3.591 2.073 l 0 0 c -1.231 2.792 -5.192 2.792 -6.423 0 l 0 0 c -0.617 -1.4 -2.07 -2.238 -3.591 -2.073 h 0 c -3.033 0.33 -5.013 -3.1 -3.211 -5.562 l 0 0 C 30.916 67.33 30.916 65.652 30.013 64.418 z" style="stroke: none; stroke-width: 1; stroke-dasharray: none; stroke-linecap: butt; stroke-linejoin: miter; stroke-miterlimit: 10; fill: rgb(248,156,23); fill-rule: nonzero; opacity: 1;" transform=" matrix(1 0 0 1 0 0) " stroke-linecap="round" />
	<circle cx="40.028999999999996" cy="66.249" r="5.629" style="stroke: none; stroke-width: 1; stroke-dasharray: none; stroke-linecap: butt; stroke-linejoin: miter; stroke-miterlimit: 10; fill: rgb(247,198,132); fill-rule: nonzero; opacity: 1;" transform="  matrix(1 0 0 1 0 0) "/>
	<path d="M 58.389 24.643 H 22.773 c -0.806 0 -1.459 -0.654 -1.459 -1.459 c 0 -0.806 0.653 -1.459 1.459 -1.459 h 35.616 c 0.806 0 1.459 0.654 1.459 1.459 C 59.848 23.989 59.195 24.643 58.389 24.643 z" style="stroke: none; stroke-width: 1; stroke-dasharray: none; stroke-linecap: butt; stroke-linejoin: miter; stroke-miterlimit: 10; fill: rgb(127,198,220); fill-rule: nonzero; opacity: 1;" transform=" matrix(1 0 0 1 0 0) " stroke-linecap="round" />
</g>
</svg>