<?xml version="1.0" encoding="iso-8859-1"?>
<!-- Uploaded to: SVG Repo, www.svgrepo.com, Generator: SVG Repo Mixer Tools -->
<svg height="800px" width="800px" version="1.1" id="Layer_1" xmlns="http://www.w3.org/2000/svg" xmlns:xlink="http://www.w3.org/1999/xlink" 
	 viewBox="0 0 392.575 392.575" xml:space="preserve">
<path style="fill:#FFFFFF;" d="M237.576,330.72h-38.529c-6.012,0-10.925-4.848-10.925-10.925V281.33
	c0-2.844,1.164-5.624,3.168-7.758l75.636-75.636V32.829c0-6.012-4.848-10.925-10.925-10.925H84.558v51.782
	c0,6.012-4.848,10.925-10.925,10.925H21.851v275.265c0,6.012,4.848,10.925,10.925,10.925h223.418
	c6.012,0,10.925-4.848,10.925-10.925V305.96l-21.721,21.592C243.329,329.556,240.549,330.72,237.576,330.72z"/>
<path style="fill:#56ACE0;" d="M73.568,84.611H44.671l-2.715,252.315c-0.065,6.012,4.784,10.99,10.731,11.055l179.782,2.004
	c6.012,0.065,10.99-4.784,11.055-10.731l0.065-10.279c-1.745,1.228-3.943,1.875-6.077,1.875h-38.529
	c-6.012,0-10.925-4.848-10.925-10.925v-38.529c0-2.844,1.164-5.624,3.168-7.758l53.527-53.527l1.875-164.267
	c0.065-6.012-4.784-10.99-10.731-11.055L84.364,43.237V73.75C84.558,79.698,79.58,84.611,73.568,84.611z"/>
<g>
	<path style="fill:#194F82;" d="M211.846,83.641h-90.634c-6.012,0-10.925-4.848-10.925-10.925c0-6.012,4.848-10.925,10.925-10.925
		h90.634c6.012,0,10.925,4.848,10.925,10.925C222.772,78.793,217.923,83.641,211.846,83.641z"/>
	<path style="fill:#194F82;" d="M211.846,145.379H76.929c-6.012,0-10.925-4.848-10.925-10.925s4.848-10.925,10.925-10.925h134.982
		c6.012,0,10.925,4.848,10.925,10.925C222.772,140.53,217.923,145.379,211.846,145.379z"/>
	<path style="fill:#194F82;" d="M211.846,207.116H76.929c-6.012,0-10.925-4.848-10.925-10.925c0-6.077,4.848-10.925,10.925-10.925
		h134.982c6.012,0,10.925,4.848,10.925,10.925C222.836,202.267,217.923,207.116,211.846,207.116z"/>
	<path style="fill:#194F82;" d="M152.76,268.983h-75.83c-6.012,0-10.925-4.848-10.925-10.925c0-6.012,4.848-10.925,10.925-10.925
		h75.83c6.012,0,10.925,4.848,10.925,10.925C163.685,264.134,158.772,268.983,152.76,268.983z"/>
	<path style="fill:#194F82;" d="M152.76,330.72h-75.83c-6.012,0-10.925-4.848-10.925-10.925s4.848-10.925,10.925-10.925h75.83
		c6.012,0,10.925,4.848,10.925,10.925S158.772,330.72,152.76,330.72z"/>
	<path style="fill:#194F82;" d="M384.453,149.968l-15.451-15.451c-11.895-10.731-26.958-10.667-38.529,0L288.84,176.15V32.829
		c0-18.036-14.675-32.711-32.711-32.711H82.683c-8.727,0-17.002,3.426-23.208,9.568L9.568,59.593C3.362,65.799,0,73.944,0,82.671
		v277.075c0,18.036,14.675,32.711,32.711,32.711h223.418c18.036,0,32.711-14.675,32.711-32.711V284.11l95.612-95.612
		C395.572,176.991,394.99,160.183,384.453,149.968z M62.642,37.354V62.76H37.236L62.642,37.354z M267.055,359.811
		c0,6.012-4.848,10.925-10.925,10.925H32.711c-6.012,0-10.925-4.848-10.925-10.925v-275.2h51.782
		c6.012,0,10.925-4.848,10.925-10.925V21.904h171.636c6.012,0,10.925,4.848,10.925,10.925v165.107l-75.572,75.636
		c-2.004,2.004-3.168,4.784-3.168,7.758v38.529c0,6.012,4.848,10.925,10.925,10.925h38.529c2.844,0,5.624-1.164,7.758-3.168
		l21.657-21.657L267.055,359.811L267.055,359.811z M233.115,308.934h-23.079v-23.079l106.408-106.473l23.079,23.079L233.115,308.934
		z M369.002,173.047l-13.964,13.964l-23.079-23.079l13.964-13.964c2.78-2.263,5.301-2.004,7.758,0l15.386,15.386
		C371.006,166.776,371.394,171.108,369.002,173.047z"/>
</g>
<g>
	<polygon style="fill:#FFC10D;" points="62.642,37.354 37.236,62.76 62.642,62.76 	"/>
	<polygon style="fill:#FFC10D;" points="210.036,285.791 210.036,308.934 233.115,308.934 339.588,202.526 316.444,179.383 	"/>
</g>
<path style="fill:#FFFFFF;" d="M353.616,149.968c-2.392-2.004-4.978-2.263-7.758,0l-13.964,13.964l23.079,23.079l13.964-13.964
	c2.392-1.939,2.004-6.271,0-7.758L353.616,149.968z"/>
</svg>